<?xml version="1.0" encoding="UTF-8" standalone="no"?>
<!-- Created with Inkscape (http://www.inkscape.org/) -->

<svg
   xmlns:dc="http://purl.org/dc/elements/1.1/"
   xmlns:cc="http://creativecommons.org/ns#"
   xmlns:rdf="http://www.w3.org/1999/02/22-rdf-syntax-ns#"
   xmlns:svg="http://www.w3.org/2000/svg"
   xmlns="http://www.w3.org/2000/svg"
   xmlns:sodipodi="http://sodipodi.sourceforge.net/DTD/sodipodi-0.dtd"
   xmlns:inkscape="http://www.inkscape.org/namespaces/inkscape"
   width="210mm"
   height="297mm"
   viewBox="0 0 210 297"
   version="1.1"
   id="svg34792"
   inkscape:version="0.92.2 (5c3e80d, 2017-08-06)"
   sodipodi:docname="Fig_6.svg">
  <defs
     id="defs34786">
    <clipPath
       id="clipPath34812"
       clipPathUnits="userSpaceOnUse">
      <path
         inkscape:connector-curvature="0"
         id="path34810"
         d="M 0,0 H 4597.5 V 4560 H 0 Z" />
    </clipPath>
    <clipPath
       id="clipPath34824"
       clipPathUnits="userSpaceOnUse">
      <path
         inkscape:connector-curvature="0"
         id="path34822"
         d="m 410.602,320.102 h 4132.1 v 4185.1 h -4132.1 z" />
    </clipPath>
    <clipPath
       id="clipPath35024"
       clipPathUnits="userSpaceOnUse">
      <path
         inkscape:connector-curvature="0"
         id="path35022"
         d="M 0,0 H 4597.5 V 4560 H 0 Z" />
    </clipPath>
  </defs>
  <sodipodi:namedview
     id="base"
     pagecolor="#ffffff"
     bordercolor="#666666"
     borderopacity="1.0"
     inkscape:pageopacity="0.0"
     inkscape:pageshadow="2"
     inkscape:zoom="0.7"
     inkscape:cx="229.94488"
     inkscape:cy="625.75468"
     inkscape:document-units="mm"
     inkscape:current-layer="layer1"
     showgrid="false"
     inkscape:window-width="1920"
     inkscape:window-height="1000"
     inkscape:window-x="-11"
     inkscape:window-y="-11"
     inkscape:window-maximized="1" />
  <metadata
     id="metadata34789">
    <rdf:RDF>
      <cc:Work
         rdf:about="">
        <dc:format>image/svg+xml</dc:format>
        <dc:type
           rdf:resource="http://purl.org/dc/dcmitype/StillImage" />
        <dc:title></dc:title>
      </cc:Work>
    </rdf:RDF>
  </metadata>
  <g
     inkscape:label="Layer 1"
     inkscape:groupmode="layer"
     id="layer1">
    <g
       transform="matrix(0.35277777,0,0,-0.35277777,27.762352,191.46905)"
       inkscape:label="ink_ext_XXXXXX"
       id="g34802">
      <g
         transform="scale(0.1)"
         id="g34804">
        <g
           id="g34806">
          <g
             clip-path="url(#clipPath34812)"
             id="g34808">
            <path
               inkscape:connector-curvature="0"
               id="path34814"
               style="fill:#ffffff;fill-opacity:1;fill-rule:nonzero;stroke:none"
               d="M 0,0 H 4597.5 V 4560 H 0 Z" />
            <path
               inkscape:connector-curvature="0"
               id="path34816"
               style="fill:none;stroke:#ffffff;stroke-width:10.69999981;stroke-linecap:round;stroke-linejoin:round;stroke-miterlimit:10;stroke-dasharray:none;stroke-opacity:1"
               d="M 0,0 H 4597.5 V 4560 H 0 Z" />
          </g>
        </g>
        <g
           id="g34818">
          <g
             clip-path="url(#clipPath34824)"
             id="g34820">
            <path
               inkscape:connector-curvature="0"
               id="path34826"
               style="fill:#ffffff;fill-opacity:1;fill-rule:nonzero;stroke:none"
               d="m 410.602,320.102 h 4132.1 v 4185.1 h -4132.1 z" />
            <path
               inkscape:connector-curvature="0"
               id="path34828"
               style="fill:none;stroke:#ebebeb;stroke-width:5.30000019;stroke-linecap:butt;stroke-linejoin:round;stroke-miterlimit:10;stroke-dasharray:none;stroke-opacity:1"
               d="M 410.602,909.301 H 4542.7" />
            <path
               inkscape:connector-curvature="0"
               id="path34830"
               style="fill:none;stroke:#ebebeb;stroke-width:5.30000019;stroke-linecap:butt;stroke-linejoin:round;stroke-miterlimit:10;stroke-dasharray:none;stroke-opacity:1"
               d="M 410.602,2050.5 H 4542.7" />
            <path
               inkscape:connector-curvature="0"
               id="path34832"
               style="fill:none;stroke:#ebebeb;stroke-width:5.30000019;stroke-linecap:butt;stroke-linejoin:round;stroke-miterlimit:10;stroke-dasharray:none;stroke-opacity:1"
               d="M 410.602,3191.8 H 4542.7" />
            <path
               inkscape:connector-curvature="0"
               id="path34834"
               style="fill:none;stroke:#ebebeb;stroke-width:5.30000019;stroke-linecap:butt;stroke-linejoin:round;stroke-miterlimit:10;stroke-dasharray:none;stroke-opacity:1"
               d="M 410.602,4333 H 4542.7" />
            <path
               inkscape:connector-curvature="0"
               id="path34836"
               style="fill:none;stroke:#ebebeb;stroke-width:5.30000019;stroke-linecap:butt;stroke-linejoin:round;stroke-miterlimit:10;stroke-dasharray:none;stroke-opacity:1"
               d="M 1072.8,320.102 V 4505.2" />
            <path
               inkscape:connector-curvature="0"
               id="path34838"
               style="fill:none;stroke:#ebebeb;stroke-width:5.30000019;stroke-linecap:butt;stroke-linejoin:round;stroke-miterlimit:10;stroke-dasharray:none;stroke-opacity:1"
               d="M 2029.6,320.102 V 4505.2" />
            <path
               inkscape:connector-curvature="0"
               id="path34840"
               style="fill:none;stroke:#ebebeb;stroke-width:5.30000019;stroke-linecap:butt;stroke-linejoin:round;stroke-miterlimit:10;stroke-dasharray:none;stroke-opacity:1"
               d="M 2986.3,320.102 V 4505.2" />
            <path
               inkscape:connector-curvature="0"
               id="path34842"
               style="fill:none;stroke:#ebebeb;stroke-width:5.30000019;stroke-linecap:butt;stroke-linejoin:round;stroke-miterlimit:10;stroke-dasharray:none;stroke-opacity:1"
               d="M 3943.1,320.102 V 4505.2" />
            <path
               inkscape:connector-curvature="0"
               id="path34844"
               style="fill:none;stroke:#ebebeb;stroke-width:10.69999981;stroke-linecap:butt;stroke-linejoin:round;stroke-miterlimit:10;stroke-dasharray:none;stroke-opacity:1"
               d="M 410.602,338.699 H 4542.7" />
            <path
               inkscape:connector-curvature="0"
               id="path34846"
               style="fill:none;stroke:#ebebeb;stroke-width:10.69999981;stroke-linecap:butt;stroke-linejoin:round;stroke-miterlimit:10;stroke-dasharray:none;stroke-opacity:1"
               d="M 410.602,1479.9 H 4542.7" />
            <path
               inkscape:connector-curvature="0"
               id="path34848"
               style="fill:none;stroke:#ebebeb;stroke-width:10.69999981;stroke-linecap:butt;stroke-linejoin:round;stroke-miterlimit:10;stroke-dasharray:none;stroke-opacity:1"
               d="M 410.602,2621.2 H 4542.7" />
            <path
               inkscape:connector-curvature="0"
               id="path34850"
               style="fill:none;stroke:#ebebeb;stroke-width:10.69999981;stroke-linecap:butt;stroke-linejoin:round;stroke-miterlimit:10;stroke-dasharray:none;stroke-opacity:1"
               d="M 410.602,3762.4 H 4542.7" />
            <path
               inkscape:connector-curvature="0"
               id="path34852"
               style="fill:none;stroke:#ebebeb;stroke-width:10.69999981;stroke-linecap:butt;stroke-linejoin:round;stroke-miterlimit:10;stroke-dasharray:none;stroke-opacity:1"
               d="M 594.5,320.102 V 4505.2" />
            <path
               inkscape:connector-curvature="0"
               id="path34854"
               style="fill:none;stroke:#ebebeb;stroke-width:10.69999981;stroke-linecap:butt;stroke-linejoin:round;stroke-miterlimit:10;stroke-dasharray:none;stroke-opacity:1"
               d="M 1551.2,320.102 V 4505.2" />
            <path
               inkscape:connector-curvature="0"
               id="path34856"
               style="fill:none;stroke:#ebebeb;stroke-width:10.69999981;stroke-linecap:butt;stroke-linejoin:round;stroke-miterlimit:10;stroke-dasharray:none;stroke-opacity:1"
               d="M 2508,320.102 V 4505.2" />
            <path
               inkscape:connector-curvature="0"
               id="path34858"
               style="fill:none;stroke:#ebebeb;stroke-width:10.69999981;stroke-linecap:butt;stroke-linejoin:round;stroke-miterlimit:10;stroke-dasharray:none;stroke-opacity:1"
               d="M 3464.7,320.102 V 4505.2" />
            <path
               inkscape:connector-curvature="0"
               id="path34860"
               style="fill:none;stroke:#ebebeb;stroke-width:10.69999981;stroke-linecap:butt;stroke-linejoin:round;stroke-miterlimit:10;stroke-dasharray:none;stroke-opacity:1"
               d="M 4421.5,320.102 V 4505.2" />
            <path
               inkscape:connector-curvature="0"
               id="path34862"
               style="fill:#ffff00;fill-opacity:1;fill-rule:nonzero;stroke:none"
               d="m 3846.2,563.602 c 0,7.839 -6.36,14.199 -14.2,14.199 -7.84,0 -14.2,-6.36 -14.2,-14.199 0,-7.84 6.36,-14.204 14.2,-14.204 7.84,0 14.2,6.364 14.2,14.204" />
            <path
               inkscape:connector-curvature="0"
               id="path34864"
               style="fill:none;stroke:#000000;stroke-width:7.0999999;stroke-linecap:round;stroke-linejoin:round;stroke-miterlimit:10;stroke-dasharray:none;stroke-opacity:1"
               d="m 3846.2,563.602 c 0,7.839 -6.36,14.199 -14.2,14.199 -7.84,0 -14.2,-6.36 -14.2,-14.199 0,-7.84 6.36,-14.204 14.2,-14.204 7.84,0 14.2,6.364 14.2,14.204" />
            <path
               inkscape:connector-curvature="0"
               id="path34866"
               style="fill:#ffff00;fill-opacity:1;fill-rule:nonzero;stroke:none"
               d="m 3946.1,1052.7 c 0,7.84 -6.36,14.2 -14.2,14.2 -7.84,0 -14.2,-6.36 -14.2,-14.2 0,-7.84 6.36,-14.2 14.2,-14.2 7.84,0 14.2,6.36 14.2,14.2" />
            <path
               inkscape:connector-curvature="0"
               id="path34868"
               style="fill:none;stroke:#000000;stroke-width:7.0999999;stroke-linecap:round;stroke-linejoin:round;stroke-miterlimit:10;stroke-dasharray:none;stroke-opacity:1"
               d="m 3946.1,1052.7 c 0,7.84 -6.36,14.2 -14.2,14.2 -7.84,0 -14.2,-6.36 -14.2,-14.2 0,-7.84 6.36,-14.2 14.2,-14.2 7.84,0 14.2,6.36 14.2,14.2" />
            <path
               inkscape:connector-curvature="0"
               id="path34870"
               style="fill:#ffff00;fill-opacity:1;fill-rule:nonzero;stroke:none"
               d="m 4027.1,1459.9 c 0,7.84 -6.36,14.2 -14.2,14.2 -7.84,0 -14.2,-6.36 -14.2,-14.2 0,-7.84 6.36,-14.2 14.2,-14.2 7.84,0 14.2,6.36 14.2,14.2" />
            <path
               inkscape:connector-curvature="0"
               id="path34872"
               style="fill:none;stroke:#000000;stroke-width:7.0999999;stroke-linecap:round;stroke-linejoin:round;stroke-miterlimit:10;stroke-dasharray:none;stroke-opacity:1"
               d="m 4027.1,1459.9 c 0,7.84 -6.36,14.2 -14.2,14.2 -7.84,0 -14.2,-6.36 -14.2,-14.2 0,-7.84 6.36,-14.2 14.2,-14.2 7.84,0 14.2,6.36 14.2,14.2" />
            <path
               inkscape:connector-curvature="0"
               id="path34874"
               style="fill:#ffff00;fill-opacity:1;fill-rule:nonzero;stroke:none"
               d="m 3713.2,1308.3 c 0,7.84 -6.36,14.2 -14.2,14.2 -7.84,0 -14.2,-6.36 -14.2,-14.2 0,-7.84 6.36,-14.2 14.2,-14.2 7.84,0 14.2,6.36 14.2,14.2" />
            <path
               inkscape:connector-curvature="0"
               id="path34876"
               style="fill:none;stroke:#000000;stroke-width:7.0999999;stroke-linecap:round;stroke-linejoin:round;stroke-miterlimit:10;stroke-dasharray:none;stroke-opacity:1"
               d="m 3713.2,1308.3 c 0,7.84 -6.36,14.2 -14.2,14.2 -7.84,0 -14.2,-6.36 -14.2,-14.2 0,-7.84 6.36,-14.2 14.2,-14.2 7.84,0 14.2,6.36 14.2,14.2" />
            <path
               inkscape:connector-curvature="0"
               id="path34878"
               style="fill:#ffff00;fill-opacity:1;fill-rule:nonzero;stroke:none"
               d="m 4104,2722.9 c 0,7.84 -6.36,14.2 -14.2,14.2 -7.84,0 -14.2,-6.36 -14.2,-14.2 0,-7.84 6.36,-14.2 14.2,-14.2 7.84,0 14.2,6.36 14.2,14.2" />
            <path
               inkscape:connector-curvature="0"
               id="path34880"
               style="fill:none;stroke:#000000;stroke-width:7.0999999;stroke-linecap:round;stroke-linejoin:round;stroke-miterlimit:10;stroke-dasharray:none;stroke-opacity:1"
               d="m 4104,2722.9 c 0,7.84 -6.36,14.2 -14.2,14.2 -7.84,0 -14.2,-6.36 -14.2,-14.2 0,-7.84 6.36,-14.2 14.2,-14.2 7.84,0 14.2,6.36 14.2,14.2" />
            <path
               inkscape:connector-curvature="0"
               id="path34882"
               style="fill:#ffff00;fill-opacity:1;fill-rule:nonzero;stroke:none"
               d="m 3936.9,2631.2 c 0,7.84 -6.36,14.2 -14.2,14.2 -7.84,0 -14.2,-6.36 -14.2,-14.2 0,-7.84 6.36,-14.2 14.2,-14.2 7.84,0 14.2,6.36 14.2,14.2" />
            <path
               inkscape:connector-curvature="0"
               id="path34884"
               style="fill:none;stroke:#000000;stroke-width:7.0999999;stroke-linecap:round;stroke-linejoin:round;stroke-miterlimit:10;stroke-dasharray:none;stroke-opacity:1"
               d="m 3936.9,2631.2 c 0,7.84 -6.36,14.2 -14.2,14.2 -7.84,0 -14.2,-6.36 -14.2,-14.2 0,-7.84 6.36,-14.2 14.2,-14.2 7.84,0 14.2,6.36 14.2,14.2" />
            <path
               inkscape:connector-curvature="0"
               id="path34886"
               style="fill:#ffff00;fill-opacity:1;fill-rule:nonzero;stroke:none"
               d="m 3802.8,2555.7 c 0,7.84 -6.36,14.2 -14.2,14.2 -7.84,0 -14.2,-6.36 -14.2,-14.2 0,-7.84 6.36,-14.2 14.2,-14.2 7.84,0 14.2,6.36 14.2,14.2" />
            <path
               inkscape:connector-curvature="0"
               id="path34888"
               style="fill:none;stroke:#000000;stroke-width:7.0999999;stroke-linecap:round;stroke-linejoin:round;stroke-miterlimit:10;stroke-dasharray:none;stroke-opacity:1"
               d="m 3802.8,2555.7 c 0,7.84 -6.36,14.2 -14.2,14.2 -7.84,0 -14.2,-6.36 -14.2,-14.2 0,-7.84 6.36,-14.2 14.2,-14.2 7.84,0 14.2,6.36 14.2,14.2" />
            <path
               inkscape:connector-curvature="0"
               id="path34890"
               style="fill:#ffff00;fill-opacity:1;fill-rule:nonzero;stroke:none"
               d="m 3995,1962.1 c 0,7.84 -6.36,14.2 -14.2,14.2 -7.84,0 -14.2,-6.36 -14.2,-14.2 0,-7.84 6.36,-14.2 14.2,-14.2 7.84,0 14.2,6.36 14.2,14.2" />
            <path
               inkscape:connector-curvature="0"
               id="path34892"
               style="fill:none;stroke:#000000;stroke-width:7.0999999;stroke-linecap:round;stroke-linejoin:round;stroke-miterlimit:10;stroke-dasharray:none;stroke-opacity:1"
               d="m 3995,1962.1 c 0,7.84 -6.36,14.2 -14.2,14.2 -7.84,0 -14.2,-6.36 -14.2,-14.2 0,-7.84 6.36,-14.2 14.2,-14.2 7.84,0 14.2,6.36 14.2,14.2" />
            <path
               inkscape:connector-curvature="0"
               id="path34894"
               style="fill:#ffff00;fill-opacity:1;fill-rule:nonzero;stroke:none"
               d="m 4097.5,510.301 c 0,7.84 -6.36,14.199 -14.2,14.199 -7.84,0 -14.2,-6.359 -14.2,-14.199 0,-7.84 6.36,-14.199 14.2,-14.199 7.84,0 14.2,6.359 14.2,14.199" />
            <path
               inkscape:connector-curvature="0"
               id="path34896"
               style="fill:none;stroke:#000000;stroke-width:7.0999999;stroke-linecap:round;stroke-linejoin:round;stroke-miterlimit:10;stroke-dasharray:none;stroke-opacity:1"
               d="m 4097.5,510.301 c 0,7.84 -6.36,14.199 -14.2,14.199 -7.84,0 -14.2,-6.359 -14.2,-14.199 0,-7.84 6.36,-14.199 14.2,-14.199 7.84,0 14.2,6.359 14.2,14.199" />
            <path
               inkscape:connector-curvature="0"
               id="path34898"
               style="fill:#ffff00;fill-opacity:1;fill-rule:nonzero;stroke:none"
               d="m 4295.6,1437.3 c 0,31.42 -25.48,56.9 -56.9,56.9 -31.42,0 -56.9,-25.48 -56.9,-56.9 0,-31.42 25.48,-56.9 56.9,-56.9 31.42,0 56.9,25.48 56.9,56.9" />
            <path
               inkscape:connector-curvature="0"
               id="path34900"
               style="fill:none;stroke:#000000;stroke-width:7.0999999;stroke-linecap:round;stroke-linejoin:round;stroke-miterlimit:10;stroke-dasharray:none;stroke-opacity:1"
               d="m 4295.6,1437.3 c 0,31.42 -25.48,56.9 -56.9,56.9 -31.42,0 -56.9,-25.48 -56.9,-56.9 0,-31.42 25.48,-56.9 56.9,-56.9 31.42,0 56.9,25.48 56.9,56.9" />
            <path
               inkscape:connector-curvature="0"
               id="path34902"
               style="fill:#ffff00;fill-opacity:1;fill-rule:nonzero;stroke:none"
               d="m 4411.8,2054.1 c 0,31.42 -25.48,56.9 -56.9,56.9 -31.42,0 -56.9,-25.48 -56.9,-56.9 0,-31.42 25.48,-56.9 56.9,-56.9 31.42,0 56.9,25.48 56.9,56.9" />
            <path
               inkscape:connector-curvature="0"
               id="path34904"
               style="fill:none;stroke:#000000;stroke-width:7.0999999;stroke-linecap:round;stroke-linejoin:round;stroke-miterlimit:10;stroke-dasharray:none;stroke-opacity:1"
               d="m 4411.8,2054.1 c 0,31.42 -25.48,56.9 -56.9,56.9 -31.42,0 -56.9,-25.48 -56.9,-56.9 0,-31.42 25.48,-56.9 56.9,-56.9 31.42,0 56.9,25.48 56.9,56.9" />
            <path
               inkscape:connector-curvature="0"
               id="path34906"
               style="fill:#ffff00;fill-opacity:1;fill-rule:nonzero;stroke:none"
               d="m 4182.1,1342.1 c 0,31.42 -25.48,56.9 -56.9,56.9 -31.42,0 -56.9,-25.48 -56.9,-56.9 0,-31.42 25.48,-56.9 56.9,-56.9 31.42,0 56.9,25.48 56.9,56.9" />
            <path
               inkscape:connector-curvature="0"
               id="path34908"
               style="fill:none;stroke:#000000;stroke-width:7.0999999;stroke-linecap:round;stroke-linejoin:round;stroke-miterlimit:10;stroke-dasharray:none;stroke-opacity:1"
               d="m 4182.1,1342.1 c 0,31.42 -25.48,56.9 -56.9,56.9 -31.42,0 -56.9,-25.48 -56.9,-56.9 0,-31.42 25.48,-56.9 56.9,-56.9 31.42,0 56.9,25.48 56.9,56.9" />
            <path
               inkscape:connector-curvature="0"
               id="path34910"
               style="fill:#ffff00;fill-opacity:1;fill-rule:nonzero;stroke:none"
               d="m 1434.9,1574.8 c 0,31.42 -25.48,56.9 -56.9,56.9 -31.42,0 -56.9,-25.48 -56.9,-56.9 0,-31.42 25.48,-56.9 56.9,-56.9 31.42,0 56.9,25.48 56.9,56.9" />
            <path
               inkscape:connector-curvature="0"
               id="path34912"
               style="fill:none;stroke:#000000;stroke-width:7.0999999;stroke-linecap:round;stroke-linejoin:round;stroke-miterlimit:10;stroke-dasharray:none;stroke-opacity:1"
               d="m 1434.9,1574.8 c 0,31.42 -25.48,56.9 -56.9,56.9 -31.42,0 -56.9,-25.48 -56.9,-56.9 0,-31.42 25.48,-56.9 56.9,-56.9 31.42,0 56.9,25.48 56.9,56.9" />
            <path
               inkscape:connector-curvature="0"
               id="path34914"
               style="fill:#ffff00;fill-opacity:1;fill-rule:nonzero;stroke:none"
               d="m 2653.3,2711.6 c 0,31.42 -25.48,56.9 -56.9,56.9 -31.42,0 -56.9,-25.48 -56.9,-56.9 0,-31.42 25.48,-56.9 56.9,-56.9 31.42,0 56.9,25.48 56.9,56.9" />
            <path
               inkscape:connector-curvature="0"
               id="path34916"
               style="fill:none;stroke:#000000;stroke-width:7.0999999;stroke-linecap:round;stroke-linejoin:round;stroke-miterlimit:10;stroke-dasharray:none;stroke-opacity:1"
               d="m 2653.3,2711.6 c 0,31.42 -25.48,56.9 -56.9,56.9 -31.42,0 -56.9,-25.48 -56.9,-56.9 0,-31.42 25.48,-56.9 56.9,-56.9 31.42,0 56.9,25.48 56.9,56.9" />
            <path
               inkscape:connector-curvature="0"
               id="path34918"
               style="fill:#ffff00;fill-opacity:1;fill-rule:nonzero;stroke:none"
               d="m 3303.3,3350.6 c 0,7.84 -6.36,14.2 -14.2,14.2 -7.84,0 -14.2,-6.36 -14.2,-14.2 0,-7.84 6.36,-14.2 14.2,-14.2 7.84,0 14.2,6.36 14.2,14.2" />
            <path
               inkscape:connector-curvature="0"
               id="path34920"
               style="fill:none;stroke:#000000;stroke-width:7.0999999;stroke-linecap:round;stroke-linejoin:round;stroke-miterlimit:10;stroke-dasharray:none;stroke-opacity:1"
               d="m 3303.3,3350.6 c 0,7.84 -6.36,14.2 -14.2,14.2 -7.84,0 -14.2,-6.36 -14.2,-14.2 0,-7.84 6.36,-14.2 14.2,-14.2 7.84,0 14.2,6.36 14.2,14.2" />
            <path
               inkscape:connector-curvature="0"
               id="path34922"
               style="fill:#ffff00;fill-opacity:1;fill-rule:nonzero;stroke:none"
               d="m 655.398,1234.1 c 0,31.42 -25.476,56.9 -56.898,56.9 -31.422,0 -56.898,-25.48 -56.898,-56.9 0,-31.42 25.476,-56.9 56.898,-56.9 31.422,0 56.898,25.48 56.898,56.9" />
            <path
               inkscape:connector-curvature="0"
               id="path34924"
               style="fill:none;stroke:#000000;stroke-width:7.0999999;stroke-linecap:round;stroke-linejoin:round;stroke-miterlimit:10;stroke-dasharray:none;stroke-opacity:1"
               d="m 655.398,1234.1 c 0,31.42 -25.476,56.9 -56.898,56.9 -31.422,0 -56.898,-25.48 -56.898,-56.9 0,-31.42 25.476,-56.9 56.898,-56.9 31.422,0 56.898,25.48 56.898,56.9" />
            <path
               inkscape:connector-curvature="0"
               id="path34926"
               style="fill:#ffff00;fill-opacity:1;fill-rule:nonzero;stroke:none"
               d="m 3778.4,2946.6 c 0,7.84 -6.36,14.2 -14.2,14.2 -7.84,0 -14.2,-6.36 -14.2,-14.2 0,-7.84 6.36,-14.2 14.2,-14.2 7.84,0 14.2,6.36 14.2,14.2" />
            <path
               inkscape:connector-curvature="0"
               id="path34928"
               style="fill:none;stroke:#000000;stroke-width:7.0999999;stroke-linecap:round;stroke-linejoin:round;stroke-miterlimit:10;stroke-dasharray:none;stroke-opacity:1"
               d="m 3778.4,2946.6 c 0,7.84 -6.36,14.2 -14.2,14.2 -7.84,0 -14.2,-6.36 -14.2,-14.2 0,-7.84 6.36,-14.2 14.2,-14.2 7.84,0 14.2,6.36 14.2,14.2" />
            <path
               inkscape:connector-curvature="0"
               id="path34930"
               style="fill:#ffff00;fill-opacity:1;fill-rule:nonzero;stroke:none"
               d="m 3677.2,3057.9 c 0,7.84 -6.36,14.2 -14.2,14.2 -7.84,0 -14.2,-6.36 -14.2,-14.2 0,-7.84 6.36,-14.2 14.2,-14.2 7.84,0 14.2,6.36 14.2,14.2" />
            <path
               inkscape:connector-curvature="0"
               id="path34932"
               style="fill:none;stroke:#000000;stroke-width:7.0999999;stroke-linecap:round;stroke-linejoin:round;stroke-miterlimit:10;stroke-dasharray:none;stroke-opacity:1"
               d="m 3677.2,3057.9 c 0,7.84 -6.36,14.2 -14.2,14.2 -7.84,0 -14.2,-6.36 -14.2,-14.2 0,-7.84 6.36,-14.2 14.2,-14.2 7.84,0 14.2,6.36 14.2,14.2" />
            <path
               inkscape:connector-curvature="0"
               id="path34934"
               style="fill:#ffff00;fill-opacity:1;fill-rule:nonzero;stroke:none"
               d="m 3583.5,3150.6 c 0,7.84 -6.36,14.2 -14.2,14.2 -7.84,0 -14.2,-6.36 -14.2,-14.2 0,-7.84 6.36,-14.2 14.2,-14.2 7.84,0 14.2,6.36 14.2,14.2" />
            <path
               inkscape:connector-curvature="0"
               id="path34936"
               style="fill:none;stroke:#000000;stroke-width:7.0999999;stroke-linecap:round;stroke-linejoin:round;stroke-miterlimit:10;stroke-dasharray:none;stroke-opacity:1"
               d="m 3583.5,3150.6 c 0,7.84 -6.36,14.2 -14.2,14.2 -7.84,0 -14.2,-6.36 -14.2,-14.2 0,-7.84 6.36,-14.2 14.2,-14.2 7.84,0 14.2,6.36 14.2,14.2" />
            <path
               inkscape:connector-curvature="0"
               id="path34938"
               style="fill:#ffff00;fill-opacity:1;fill-rule:nonzero;stroke:none"
               d="m 3597.8,3206.1 c 0,7.84 -6.36,14.2 -14.2,14.2 -7.84,0 -14.2,-6.36 -14.2,-14.2 0,-7.84 6.36,-14.2 14.2,-14.2 7.84,0 14.2,6.36 14.2,14.2" />
            <path
               inkscape:connector-curvature="0"
               id="path34940"
               style="fill:none;stroke:#000000;stroke-width:7.0999999;stroke-linecap:round;stroke-linejoin:round;stroke-miterlimit:10;stroke-dasharray:none;stroke-opacity:1"
               d="m 3597.8,3206.1 c 0,7.84 -6.36,14.2 -14.2,14.2 -7.84,0 -14.2,-6.36 -14.2,-14.2 0,-7.84 6.36,-14.2 14.2,-14.2 7.84,0 14.2,6.36 14.2,14.2" />
            <path
               inkscape:connector-curvature="0"
               id="path34942"
               style="fill:#ffff00;fill-opacity:1;fill-rule:nonzero;stroke:none"
               d="m 3070.2,4019.2 c 0,7.84 -6.36,14.2 -14.2,14.2 -7.84,0 -14.2,-6.36 -14.2,-14.2 0,-7.84 6.36,-14.2 14.2,-14.2 7.84,0 14.2,6.36 14.2,14.2" />
            <path
               inkscape:connector-curvature="0"
               id="path34944"
               style="fill:none;stroke:#000000;stroke-width:7.0999999;stroke-linecap:round;stroke-linejoin:round;stroke-miterlimit:10;stroke-dasharray:none;stroke-opacity:1"
               d="m 3070.2,4019.2 c 0,7.84 -6.36,14.2 -14.2,14.2 -7.84,0 -14.2,-6.36 -14.2,-14.2 0,-7.84 6.36,-14.2 14.2,-14.2 7.84,0 14.2,6.36 14.2,14.2" />
            <path
               inkscape:connector-curvature="0"
               id="path34946"
               style="fill:#ffff00;fill-opacity:1;fill-rule:nonzero;stroke:none"
               d="m 3215.2,3753 c 0,7.84 -6.36,14.2 -14.2,14.2 -7.84,0 -14.2,-6.36 -14.2,-14.2 0,-7.84 6.36,-14.2 14.2,-14.2 7.84,0 14.2,6.36 14.2,14.2" />
            <path
               inkscape:connector-curvature="0"
               id="path34948"
               style="fill:none;stroke:#000000;stroke-width:7.0999999;stroke-linecap:round;stroke-linejoin:round;stroke-miterlimit:10;stroke-dasharray:none;stroke-opacity:1"
               d="m 3215.2,3753 c 0,7.84 -6.36,14.2 -14.2,14.2 -7.84,0 -14.2,-6.36 -14.2,-14.2 0,-7.84 6.36,-14.2 14.2,-14.2 7.84,0 14.2,6.36 14.2,14.2" />
            <path
               inkscape:connector-curvature="0"
               id="path34950"
               style="fill:#ffff00;fill-opacity:1;fill-rule:nonzero;stroke:none"
               d="m 3309.7,3550.9 c 0,7.84 -6.36,14.2 -14.2,14.2 -7.84,0 -14.2,-6.36 -14.2,-14.2 0,-7.84 6.36,-14.2 14.2,-14.2 7.84,0 14.2,6.36 14.2,14.2" />
            <path
               inkscape:connector-curvature="0"
               id="path34952"
               style="fill:none;stroke:#000000;stroke-width:7.0999999;stroke-linecap:round;stroke-linejoin:round;stroke-miterlimit:10;stroke-dasharray:none;stroke-opacity:1"
               d="m 3309.7,3550.9 c 0,7.84 -6.36,14.2 -14.2,14.2 -7.84,0 -14.2,-6.36 -14.2,-14.2 0,-7.84 6.36,-14.2 14.2,-14.2 7.84,0 14.2,6.36 14.2,14.2" />
            <path
               inkscape:connector-curvature="0"
               id="path34954"
               style="fill:#ffff00;fill-opacity:1;fill-rule:nonzero;stroke:none"
               d="m 3340.3,4315 c 0,7.84 -6.36,14.2 -14.2,14.2 -7.84,0 -14.2,-6.36 -14.2,-14.2 0,-7.84 6.36,-14.2 14.2,-14.2 7.84,0 14.2,6.36 14.2,14.2" />
            <path
               inkscape:connector-curvature="0"
               id="path34956"
               style="fill:none;stroke:#000000;stroke-width:7.0999999;stroke-linecap:round;stroke-linejoin:round;stroke-miterlimit:10;stroke-dasharray:none;stroke-opacity:1"
               d="m 3340.3,4315 c 0,7.84 -6.36,14.2 -14.2,14.2 -7.84,0 -14.2,-6.36 -14.2,-14.2 0,-7.84 6.36,-14.2 14.2,-14.2 7.84,0 14.2,6.36 14.2,14.2" />
            <path
               inkscape:connector-curvature="0"
               id="path34958"
               style="fill:#ffff00;fill-opacity:1;fill-rule:nonzero;stroke:none"
               d="m 3858.6,3232.9 c 0,7.84 -6.36,14.2 -14.2,14.2 -7.84,0 -14.2,-6.36 -14.2,-14.2 0,-7.84 6.36,-14.2 14.2,-14.2 7.84,0 14.2,6.36 14.2,14.2" />
            <path
               inkscape:connector-curvature="0"
               id="path34960"
               style="fill:none;stroke:#000000;stroke-width:7.0999999;stroke-linecap:round;stroke-linejoin:round;stroke-miterlimit:10;stroke-dasharray:none;stroke-opacity:1"
               d="m 3858.6,3232.9 c 0,7.84 -6.36,14.2 -14.2,14.2 -7.84,0 -14.2,-6.36 -14.2,-14.2 0,-7.84 6.36,-14.2 14.2,-14.2 7.84,0 14.2,6.36 14.2,14.2" />
            <path
               inkscape:connector-curvature="0"
               id="path34962"
               style="fill:#ffff00;fill-opacity:1;fill-rule:nonzero;stroke:none"
               d="m 3692.2,3265.4 c 0,7.84 -6.36,14.2 -14.2,14.2 -7.84,0 -14.2,-6.36 -14.2,-14.2 0,-7.84 6.36,-14.2 14.2,-14.2 7.84,0 14.2,6.36 14.2,14.2" />
            <path
               inkscape:connector-curvature="0"
               id="path34964"
               style="fill:none;stroke:#000000;stroke-width:7.0999999;stroke-linecap:round;stroke-linejoin:round;stroke-miterlimit:10;stroke-dasharray:none;stroke-opacity:1"
               d="m 3692.2,3265.4 c 0,7.84 -6.36,14.2 -14.2,14.2 -7.84,0 -14.2,-6.36 -14.2,-14.2 0,-7.84 6.36,-14.2 14.2,-14.2 7.84,0 14.2,6.36 14.2,14.2" />
            <path
               inkscape:connector-curvature="0"
               id="path34966"
               style="fill:#ffff00;fill-opacity:1;fill-rule:nonzero;stroke:none"
               d="m 3560.3,3273.8 c 0,7.84 -6.36,14.2 -14.2,14.2 -7.84,0 -14.2,-6.36 -14.2,-14.2 0,-7.84 6.36,-14.2 14.2,-14.2 7.84,0 14.2,6.36 14.2,14.2" />
            <path
               inkscape:connector-curvature="0"
               id="path34968"
               style="fill:none;stroke:#000000;stroke-width:7.0999999;stroke-linecap:round;stroke-linejoin:round;stroke-miterlimit:10;stroke-dasharray:none;stroke-opacity:1"
               d="m 3560.3,3273.8 c 0,7.84 -6.36,14.2 -14.2,14.2 -7.84,0 -14.2,-6.36 -14.2,-14.2 0,-7.84 6.36,-14.2 14.2,-14.2 7.84,0 14.2,6.36 14.2,14.2" />
            <path
               inkscape:connector-curvature="0"
               id="path34970"
               style="fill:#ffff00;fill-opacity:1;fill-rule:nonzero;stroke:none"
               d="m 3545.2,3279.7 c 0,7.84 -6.36,14.2 -14.2,14.2 -7.84,0 -14.2,-6.36 -14.2,-14.2 0,-7.84 6.36,-14.2 14.2,-14.2 7.84,0 14.2,6.36 14.2,14.2" />
            <path
               inkscape:connector-curvature="0"
               id="path34972"
               style="fill:none;stroke:#000000;stroke-width:7.0999999;stroke-linecap:round;stroke-linejoin:round;stroke-miterlimit:10;stroke-dasharray:none;stroke-opacity:1"
               d="m 3545.2,3279.7 c 0,7.84 -6.36,14.2 -14.2,14.2 -7.84,0 -14.2,-6.36 -14.2,-14.2 0,-7.84 6.36,-14.2 14.2,-14.2 7.84,0 14.2,6.36 14.2,14.2" />
            <path
               inkscape:connector-curvature="0"
               id="path34974"
               style="fill:none;stroke:#0000ff;stroke-width:10.69999981;stroke-linecap:butt;stroke-linejoin:round;stroke-miterlimit:10;stroke-dasharray:none;stroke-opacity:1"
               d="m 3464.7,2621.2 302.7,9.5" />
            <path
               inkscape:connector-curvature="0"
               id="path34976"
               style="fill:#0000ff;fill-opacity:1;fill-rule:nonzero;stroke:none"
               d="m 3697.2,2587.1 70.2,43.6 -72.8,39" />
            <path
               inkscape:connector-curvature="0"
               id="path34978"
               style="fill:none;stroke:#0000ff;stroke-width:10.69999981;stroke-linecap:butt;stroke-linejoin:round;stroke-miterlimit:10;stroke-dasharray:none;stroke-opacity:1"
               d="m 3697.2,2587.1 70.2,43.6 -72.8,39 z" />
            <path
               inkscape:connector-curvature="0"
               id="path34980"
               style="fill:none;stroke:#0000ff;stroke-width:10.69999981;stroke-linecap:butt;stroke-linejoin:round;stroke-miterlimit:10;stroke-dasharray:none;stroke-opacity:1"
               d="M 3464.7,2621.2 3388,3055.5" />
            <path
               inkscape:connector-curvature="0"
               id="path34982"
               style="fill:#0000ff;fill-opacity:1;fill-rule:nonzero;stroke:none"
               d="m 3441.2,2992.3 -53.2,63.2 -28.2,-77.6" />
            <path
               inkscape:connector-curvature="0"
               id="path34984"
               style="fill:none;stroke:#0000ff;stroke-width:10.69999981;stroke-linecap:butt;stroke-linejoin:round;stroke-miterlimit:10;stroke-dasharray:none;stroke-opacity:1"
               d="m 3441.2,2992.3 -53.2,63.2 -28.2,-77.6 z" />
            <path
               inkscape:connector-curvature="0"
               id="path34986"
               style="fill:none;stroke:#0000ff;stroke-width:10.69999981;stroke-linecap:butt;stroke-linejoin:round;stroke-miterlimit:10;stroke-dasharray:none;stroke-opacity:1"
               d="m 3464.7,2621.2 -500.5,273.2" />
            <path
               inkscape:connector-curvature="0"
               id="path34988"
               style="fill:#0000ff;fill-opacity:1;fill-rule:nonzero;stroke:none"
               d="m 3046.8,2896.4 -82.6,-2 43,-70.5" />
            <path
               inkscape:connector-curvature="0"
               id="path34990"
               style="fill:none;stroke:#0000ff;stroke-width:10.69999981;stroke-linecap:butt;stroke-linejoin:round;stroke-miterlimit:10;stroke-dasharray:none;stroke-opacity:1"
               d="m 3046.8,2896.4 -82.6,-2 43,-70.5 z" />
            <g
               transform="scale(10)"
               id="g34992">
              <text
                 id="text35000"
                 style="font-variant:normal;font-weight:normal;font-size:11px;font-family:Helvetica;-inkscape-font-specification:Helvetica;writing-mode:lr-tb;fill:#000000;fill-opacity:1;fill-rule:nonzero;stroke:none"
                 transform="scale(1,-1)"
                 x="308.50739"
                 y="-237.77028">
                <tspan
                   id="tspan34994"
                   sodipodi:role="line"
                   x="308.50739"
                   y="-227.86198" />
                <tspan
                   id="tspan34996"
                   sodipodi:role="line"
                   y="-309.99997"
                   x="297.14139 304.47839 309.97839 316.09439 320.19727 323.25525 325.69727 331.81326 337.92926">Acartia_N</tspan>
                <tspan
                   id="tspan34998"
                   sodipodi:role="line"
                   y="-293.99017"
                   x="223.05699 232.21999 234.66199 240.16199 243.82498 249.94099 255.44099 261.55698 264.61499 270.73099 273.17297 275.61499 281.73099 287.84698">Microsetella_N</tspan>
              </text>
              <text
                 id="text35014"
                 style="font-variant:normal;font-weight:normal;font-size:9px;font-family:Helvetica;-inkscape-font-specification:Helvetica;writing-mode:lr-tb;fill:#000000;fill-opacity:1;fill-rule:nonzero;stroke:none"
                 transform="scale(1,-1)"
                 x="361.4346"
                 y="-151.49989">
                <tspan
                   id="tspan35002"
                   sodipodi:role="line"
                   y="-151.49989"
                   x="361.4346 368.93161 370.9296 375.4296 378.42661 383.4306 387.9306 392.9346 395.43658 400.44061 402.4386 404.43658 409.44061 414.44461 421.94159 423.93961 428.9436 433.9476 435.94559">Microsetella_Middle</tspan>
                <tspan
                   id="tspan35004"
                   sodipodi:role="line"
                   y="-199.17999"
                   x="352.74124 360.23825 362.23624 366.73624 369.73325 374.73724 379.23724 384.24124 386.74323 391.74725 393.74524 395.74323 400.74725 405.75125 411.75424 416.75824">Microsetella_End</tspan>
                <tspan
                   id="tspan35006"
                   sodipodi:role="line"
                   y="-113.73"
                   x="358.70062 366.1976 368.19562 372.69562 375.6926 380.69662 385.19662 390.20062 392.70261 397.7066 399.70462 401.70261 406.7066 411.7106 417.26352 422.26752 427.27151">Microsetella_Peak</tspan>
                <tspan
                   id="tspan35008"
                   sodipodi:role="line"
                   y="-137.23"
                   x="91.134613 98.136597 100.13461 102.6366 107.64061 112.64461 117.64861 122.65262 127.65662 133.65961 138.6636 143.66762 145.6656">Oithona_Begin</tspan>
                <tspan
                   id="tspan35010"
                   sodipodi:role="line"
                   y="-278.98999"
                   x="238.93861 245.94061 247.93861 250.44061 255.44461 260.44861 265.45261 270.4566 275.4606 282.95761 284.9556 289.95959 294.96359 296.96161">Oithona_Middle</tspan>
                <tspan
                   id="tspan35012"
                   sodipodi:role="line"
                   y="-117.17"
                   x="67.361603 74.363617 76.361603 78.863617 83.867615 88.871613 93.87561 98.879608 103.88361 109.43661 114.44061 119.44461">Oithona_Peak</tspan>
              </text>
            </g>
            <path
               inkscape:connector-curvature="0"
               id="path35016"
               style="fill:none;stroke:#333333;stroke-width:10.69999981;stroke-linecap:round;stroke-linejoin:round;stroke-miterlimit:10;stroke-dasharray:none;stroke-opacity:1"
               d="m 410.602,320.102 h 4132.1 v 4185.1 h -4132.1 z" />
          </g>
        </g>
        <g
           id="g35018">
          <g
             clip-path="url(#clipPath35024)"
             id="g35020">
            <g
               transform="scale(10)"
               id="g35026">
              <text
                 id="text35036"
                 style="font-variant:normal;font-weight:normal;font-size:9px;font-family:Helvetica;-inkscape-font-specification:Helvetica;writing-mode:lr-tb;fill:#4d4d4d;fill-opacity:1;fill-rule:nonzero;stroke:none"
                 transform="matrix(1,0,0,-1,18.3645,30.6398)">
                <tspan
                   id="tspan35028"
                   sodipodi:role="line"
                   y="0"
                   x="0 5.256 10.26 12.762">−0.4</tspan>
                <tspan
                   id="tspan35030"
                   sodipodi:role="line"
                   y="-114.12"
                   x="0 5.256 10.26 12.762">−0.2</tspan>
                <tspan
                   id="tspan35032"
                   sodipodi:role="line"
                   y="-228.24001"
                   x="5.2558599 10.25986 12.76186">0.0</tspan>
                <tspan
                   id="tspan35034"
                   sodipodi:role="line"
                   y="-342.37"
                   x="5.2558599 10.25986 12.76186">0.2</tspan>
              </text>
            </g>
            <path
               inkscape:connector-curvature="0"
               id="path35038"
               style="fill:none;stroke:#333333;stroke-width:10.69999981;stroke-linecap:butt;stroke-linejoin:round;stroke-miterlimit:10;stroke-dasharray:none;stroke-opacity:1"
               d="m 383.199,338.699 h 27.403" />
            <path
               inkscape:connector-curvature="0"
               id="path35040"
               style="fill:none;stroke:#333333;stroke-width:10.69999981;stroke-linecap:butt;stroke-linejoin:round;stroke-miterlimit:10;stroke-dasharray:none;stroke-opacity:1"
               d="m 383.199,1479.9 h 27.403" />
            <path
               inkscape:connector-curvature="0"
               id="path35042"
               style="fill:none;stroke:#333333;stroke-width:10.69999981;stroke-linecap:butt;stroke-linejoin:round;stroke-miterlimit:10;stroke-dasharray:none;stroke-opacity:1"
               d="m 383.199,2621.2 h 27.403" />
            <path
               inkscape:connector-curvature="0"
               id="path35044"
               style="fill:none;stroke:#333333;stroke-width:10.69999981;stroke-linecap:butt;stroke-linejoin:round;stroke-miterlimit:10;stroke-dasharray:none;stroke-opacity:1"
               d="m 383.199,3762.4 h 27.403" />
            <path
               inkscape:connector-curvature="0"
               id="path35046"
               style="fill:none;stroke:#333333;stroke-width:10.69999981;stroke-linecap:butt;stroke-linejoin:round;stroke-miterlimit:10;stroke-dasharray:none;stroke-opacity:1"
               d="m 594.5,292.699 v 27.403" />
            <path
               inkscape:connector-curvature="0"
               id="path35048"
               style="fill:none;stroke:#333333;stroke-width:10.69999981;stroke-linecap:butt;stroke-linejoin:round;stroke-miterlimit:10;stroke-dasharray:none;stroke-opacity:1"
               d="m 1551.2,292.699 v 27.403" />
            <path
               inkscape:connector-curvature="0"
               id="path35050"
               style="fill:none;stroke:#333333;stroke-width:10.69999981;stroke-linecap:butt;stroke-linejoin:round;stroke-miterlimit:10;stroke-dasharray:none;stroke-opacity:1"
               d="m 2508,292.699 v 27.403" />
            <path
               inkscape:connector-curvature="0"
               id="path35052"
               style="fill:none;stroke:#333333;stroke-width:10.69999981;stroke-linecap:butt;stroke-linejoin:round;stroke-miterlimit:10;stroke-dasharray:none;stroke-opacity:1"
               d="m 3464.7,292.699 v 27.403" />
            <path
               inkscape:connector-curvature="0"
               id="path35054"
               style="fill:none;stroke:#333333;stroke-width:10.69999981;stroke-linecap:butt;stroke-linejoin:round;stroke-miterlimit:10;stroke-dasharray:none;stroke-opacity:1"
               d="m 4421.5,292.699 v 27.403" />
            <g
               transform="scale(10)"
               id="g35056">
              <text
                 id="text35060"
                 style="font-variant:normal;font-weight:normal;font-size:9px;font-family:Helvetica;-inkscape-font-specification:Helvetica;writing-mode:lr-tb;fill:#4d4d4d;fill-opacity:1;fill-rule:nonzero;stroke:none"
                 transform="matrix(1,0,0,-1,48.0652,20.6199)">
                <tspan
                   id="tspan35058"
                   sodipodi:role="line"
                   y="0"
                   x="0 5.256 10.26 12.762 17.766001 95.669907 100.92591 105.92991 108.43191 113.43591 191.34999 196.60599 201.60999 204.11198 209.116 289.64807 294.65207 297.15408 302.15808 385.32816 390.33215 392.83417 397.83817">−0.75−0.50−0.250.000.25</tspan>
              </text>
            </g>
            <g
               transform="scale(10)"
               id="g35062">
              <text
                 id="text35066"
                 style="font-variant:normal;font-weight:normal;font-size:11px;font-family:Helvetica;-inkscape-font-specification:Helvetica;writing-mode:lr-tb;fill:#000000;fill-opacity:1;fill-rule:nonzero;stroke:none"
                 transform="matrix(1,0,0,-1,174.61,7.73008)">
                <tspan
                   id="tspan35064"
                   sodipodi:role="line"
                   y="0"
                   x="0 7.9419999 15.884 23.221001 29.337 32.395 36.057999 39.116001 45.231998 51.348 54.405998 60.521999 63.580002 73.359001 76.417 82.532997 85.591003 88.649002 91.707001 97.822998 100.881 106.997 109.439 112.497 114.939 121.055 127.171 131.27382 134.33182 136.77382 142.88982">CCA1 ( 14.6 % of total inertia)</tspan>
              </text>
              <text
                 id="text35070"
                 style="font-variant:normal;font-weight:normal;font-size:11px;font-family:Helvetica;-inkscape-font-specification:Helvetica;writing-mode:lr-tb;fill:#000000;fill-opacity:1;fill-rule:nonzero;stroke:none"
                 transform="matrix(0,1,1,0,13.3801,171.27)">
                <tspan
                   id="tspan35068"
                   sodipodi:role="line"
                   y="0"
                   x="0 7.9419999 15.884 23.221001 29.337 32.395 36.057999 39.116001 45.231998 48.290001 54.405998 57.464001 67.242996 70.301003 76.417 79.474998 82.532997 85.591003 91.707001 94.764999 100.881 103.323 106.381 108.823 114.939 121.055 125.15782 128.21582 130.65782 136.77382">CCA2 ( 7.9 % of total inertia)</tspan>
              </text>
            </g>
          </g>
        </g>
      </g>
    </g>
    <text
       xml:space="preserve"
       style="font-style:normal;font-weight:normal;font-size:10.58333302px;line-height:1.25;font-family:sans-serif;letter-spacing:0px;word-spacing:0px;fill:#000000;fill-opacity:1;stroke:none;stroke-width:0.26458332"
       x="152.6109"
       y="96.815125"
       id="text35213"><tspan
         sodipodi:role="line"
         id="tspan35211"
         x="152.6109"
         y="96.815125"
         style="font-style:normal;font-variant:normal;font-weight:normal;font-stretch:normal;font-size:3.52777767px;font-family:sans-serif;-inkscape-font-specification:'sans-serif, Normal';font-variant-ligatures:normal;font-variant-caps:normal;font-variant-numeric:normal;font-feature-settings:normal;text-align:start;writing-mode:lr-tb;text-anchor:start;stroke-width:0.26458332">SuFDPY</tspan></text>
  </g>
</svg>
